<svg xmlns="http://www.w3.org/2000/svg" viewBox="0 0 1000 1000"><defs><style>.cls-1{fill:#df3821;}.cls-1,.cls-2,.cls-3,.cls-4,.cls-5{fill-rule:evenodd;}.cls-2{fill:#648dcb;}.cls-3{fill:#fbeb78;}.cls-4{fill:#b9e185;}</style></defs><g id="图层_1" data-name="图层 1"><path class="cls-1" d="M195,292.6a65.71,65.71,0,1,1,65.71,65.92A65.81,65.81,0,0,1,195,292.6Z"/><path class="cls-2" d="M527.18,358.52a28.68,28.68,0,1,1,28.68,28.68,28.68,28.68,0,0,1-28.68-28.68Z"/><path class="cls-2" d="M647.47,358.52a28.68,28.68,0,1,1,28.68,28.68,28.68,28.68,0,0,1-28.68-28.68Z"/><polygon class="cls-3" points="195 545.16 326.42 545.16 326.42 773.32 195 773.32 195 545.16 195 545.16"/><polygon class="cls-4" points="673.58 536.6 805 536.6 805 678.72 673.58 678.72 673.58 536.6 673.58 536.6"/><path class="cls-5" d="M373.12,366.67q-9.39,3.13-29.73,7.48t-26.61,8.52q-9.55,6.78-9.56,17.22a24,24,0,0,0,7.65,17.74q7.65,7.49,19.47,7.48,13.21,0,25.22-8.7a30.61,30.61,0,0,0,11.65-16.17q1.91-6.27,1.91-23.83ZM343.39,266.49q32.69,0,48.69,7.74t22.51,19.65q6.53,11.91,6.53,43.74l-.53,57.05q0,24.36,2.35,35.92a105,105,0,0,0,8.78,24.78H383.38q-1.9-4.86-4.69-14.43c-.82-2.9-1.39-4.81-1.74-5.74a88.35,88.35,0,0,1-26.78,18.26,76.67,76.67,0,0,1-30.43,6.09q-28.51,0-44.95-15.48t-16.44-39.14A52.57,52.57,0,0,1,265.83,377a48.86,48.86,0,0,1,21-18.79q13.47-6.51,38.86-11.39,34.26-6.43,47.47-12V330q0-14.09-6.95-20.09t-26.26-6q-13.05,0-20.35,5.13t-11.82,18l-44.34-8q7.47-26.77,25.73-39.65t54.26-12.87Z"/><path class="cls-5" d="M350,505.35q33.73,0,53.64,14.49T432.28,564l-48.16,8.67q-2.43-14.4-11-21.69t-22.34-7.29q-18.25,0-29.13,12.59t-10.86,42.08q0,32.8,11,46.34t29.64,13.53q13.92,0,22.78-7.9t12.52-27.15l48,8.15q-7.49,33-28.69,49.81T349.17,698q-40.51,0-64.59-25.51t-24.09-70.63q0-45.65,24.17-71.07T350,505.35Z"/><path class="cls-5" d="M568.05,434.72q17.73,0,30.76,7.3t21.37,22.08q12.17-14.78,26.23-22.08a64.36,64.36,0,0,1,30.06-7.3q20.32,0,34.4,8.26t21,24.25q5,11.82,5,38.24v118H688.11V518q0-27.47-5-35.46-6.77-10.42-20.85-10.43a33.26,33.26,0,0,0-19.28,6.26q-9,6.25-13,18.34t-4,38.16V623.5H577.09V522.33q0-26.94-2.61-34.77t-8.08-11.64q-5.48-3.82-14.85-3.83a35.54,35.54,0,0,0-20.33,6.09q-9,6.07-13,17.55t-3.91,38.07v89.7H465.54V438.89h45V464.1q24.15-29.39,57.51-29.38Z"/></g></svg>